<?xml version="1.0" encoding="UTF-8"?>
<svg xmlns="http://www.w3.org/2000/svg" xmlns:xlink="http://www.w3.org/1999/xlink" width="227.81pt" height="173.7pt" viewBox="0 0 227.81 173.7" version="1.1">
<defs>
<clipPath id="clip1">
  <path d="M 142 142 L 162 142 L 162 173.699219 L 142 173.699219 Z M 142 142 "/>
</clipPath>
<clipPath id="clip2">
  <path d="M 210 132 L 227.808594 132 L 227.808594 165 L 210 165 Z M 210 132 "/>
</clipPath>
</defs>
<g id="surface1">
<path style=" stroke:none;fill-rule:nonzero;fill:rgb(1.599121%,41.598511%,70.199585%);fill-opacity:1;" d="M 146.46875 63.5 C 152.167969 71.101563 154.867188 78.703125 154.769531 86.300781 C 145.570313 99 133.667969 106.300781 119.269531 108 C 135.867188 97.101563 144.96875 82.300781 146.46875 63.5 Z M 112.269531 91.300781 C 106.46875 96.902344 98.070313 99.902344 86.96875 100.300781 C 72.769531 89 65.867188 75.902344 66.269531 61 C 75.867188 79 91.167969 89.101563 112.269531 91.300781 Z M 75.96875 29.300781 C 87.769531 17 100.46875 11.101563 114.269531 11.800781 C 95.867188 22.300781 86.167969 37.601563 84.96875 57.800781 C 78.769531 51.199219 75.769531 41.699219 75.96875 29.300781 Z M 143.667969 21.300781 C 155.667969 31.898438 161.769531 43.398438 162.269531 55.800781 C 152.269531 40.199219 137.667969 31.5 118.269531 29.800781 C 124.167969 24.101563 132.667969 21.199219 143.667969 21.300781 Z M 132.667969 41.800781 C 137.769531 46.800781 140.269531 52.898438 140.269531 60 C 140.269531 67.101563 137.769531 73.199219 132.667969 78.300781 C 127.667969 83.300781 121.667969 85.800781 114.46875 85.800781 C 107.367188 85.800781 101.269531 83.300781 96.269531 78.300781 C 91.269531 73.199219 88.667969 67.101563 88.667969 60 C 88.667969 52.898438 91.269531 46.800781 96.269531 41.800781 C 101.269531 36.699219 107.367188 34.199219 114.46875 34.199219 C 121.667969 34.199219 127.667969 36.699219 132.667969 41.800781 Z M 174.269531 59.800781 C 174.269531 43.300781 168.367188 29.199219 156.667969 17.5 C 144.96875 5.800781 130.867188 0 114.269531 0 C 97.667969 0 83.570313 5.800781 71.867188 17.5 C 60.070313 29.199219 54.269531 43.300781 54.269531 59.800781 C 54.269531 76.300781 60.070313 90.300781 71.867188 102 C 83.570313 113.703125 97.667969 119.5 114.269531 119.5 C 130.867188 119.5 144.96875 113.703125 156.667969 102 C 168.367188 90.300781 174.269531 76.300781 174.269531 59.800781 "/>
<path style=" stroke:none;fill-rule:nonzero;fill:rgb(1.599121%,41.598511%,70.199585%);fill-opacity:1;" d="M 133.667969 60 L 129.667969 60 C 128.867188 67.199219 122.769531 70.398438 111.269531 69.601563 L 115.367188 50.5 C 115.46875 47.898438 116.269531 46.199219 117.667969 45.601563 C 119.269531 45.398438 120.167969 44.199219 120.269531 42.300781 L 102.269531 42.300781 L 102.46875 44.898438 C 103.96875 45 104.46875 46.101563 103.96875 48.398438 L 101.167969 61.398438 C 100.066406 68.5 98.96875 72 97.867188 71.898438 C 96.167969 72 95.46875 72.898438 95.667969 74.800781 L 130.46875 74.800781 L 133.667969 60 "/>
<path style=" stroke:none;fill-rule:nonzero;fill:rgb(1.599121%,41.598511%,70.199585%);fill-opacity:1;" d="M 12 149.949219 L 9.976563 141.695313 L 7.84375 149.925781 Z M 13.109375 133.824219 L 19.261719 156.9375 L 19.710938 158.476563 C 19.890625 158.886719 20.03125 159.148438 20.128906 159.269531 L 20.699219 159.574219 C 20.78125 159.574219 20.890625 159.574219 21.03125 159.574219 C 21.167969 159.574219 21.347656 159.574219 21.570313 159.574219 L 21.570313 163.699219 L 11.875 163.699219 L 11.875 159.574219 L 13.167969 159.574219 C 13.390625 159.515625 13.539063 159.441406 13.617188 159.355469 L 13.832031 159.003906 L 13.917969 158.5625 L 13.859375 157.988281 L 13.652344 156.976563 L 13.050781 154.199219 L 6.839844 154.199219 L 6.0625 157.238281 L 5.878906 158.121094 L 5.820313 158.5625 L 5.851563 158.914063 L 6 159.179688 L 6.214844 159.398438 L 6.546875 159.574219 L 7.9375 159.574219 L 7.9375 163.699219 L 0 163.699219 L 0 159.574219 L 0.660156 159.574219 L 1.140625 159.441406 L 1.4375 159.222656 L 1.710938 158.871094 L 1.949219 158.300781 L 2.21875 157.421875 L 8.519531 133.824219 L 13.109375 133.824219 "/>
<path style=" stroke:none;fill-rule:nonzero;fill:rgb(1.599121%,41.598511%,70.199585%);fill-opacity:1;" d="M 34.558594 142.324219 L 35.761719 148.320313 L 32.96875 149.949219 C 32.730469 149.34375 32.429688 148.796875 32.070313 148.3125 C 31.769531 147.796875 31.410156 147.34375 30.988281 146.949219 L 30.390625 146.496094 L 29.820313 146.132813 L 29.21875 145.949219 L 28.617188 145.949219 C 28.320313 145.949219 28.078125 145.980469 27.898438 146.039063 C 27.71875 146.097656 27.578125 146.199219 27.480469 146.34375 C 27.359375 146.433594 27.265625 146.5625 27.195313 146.738281 C 27.125 146.914063 27.089844 147.089844 27.089844 147.265625 L 27.148438 147.703125 L 27.359375 148.097656 L 27.78125 148.492188 L 28.46875 148.929688 L 32.519531 150.945313 L 33.570313 151.648438 L 34.558594 152.394531 C 34.859375 152.628906 35.148438 152.949219 35.429688 153.355469 C 35.648438 153.621094 35.84375 153.957031 36.015625 154.363281 C 36.183594 154.773438 36.316406 155.234375 36.40625 155.746094 C 36.496094 156.257813 36.539063 156.773438 36.539063 157.300781 C 36.539063 158.292969 36.410156 159.1875 36.148438 159.976563 C 35.890625 160.765625 35.511719 161.449219 35.011719 162.035156 C 34.410156 162.734375 33.730469 163.277344 32.96875 163.65625 C 32.210938 163.976563 31.398438 164.136719 30.539063 164.136719 C 29.820313 164.136719 29.125 164.019531 28.453125 163.792969 C 27.785156 163.558594 27.160156 163.152344 26.582031 162.574219 L 26.160156 163.699219 L 24.210938 163.699219 L 22.410156 156.664063 L 25.167969 154.949219 C 25.328125 155.324219 25.507813 155.699219 25.710938 156.074219 C 25.847656 156.363281 26.058594 156.710938 26.339844 157.113281 C 26.78125 157.746094 27.242188 158.273438 27.734375 158.691406 C 28.222656 159.109375 28.710938 159.449219 29.191406 159.710938 C 29.75 159.910156 30.199219 160.011719 30.539063 160.011719 L 31.261719 159.886719 L 31.859375 159.503906 L 32.160156 159.082031 L 32.28125 158.527344 L 32.191406 158.105469 L 31.949219 157.640625 L 31.410156 157.214844 L 30.539063 156.664063 L 27.359375 154.992188 C 26.539063 154.609375 25.820313 154.175781 25.199219 153.691406 C 24.578125 153.207031 24.109375 152.695313 23.789063 152.152344 C 23.46875 151.609375 23.230469 151.058594 23.070313 150.5 C 23.007813 150.148438 22.960938 149.824219 22.917969 149.53125 C 22.878906 149.238281 22.859375 148.898438 22.859375 148.519531 C 22.859375 147.636719 22.976563 146.816406 23.21875 146.054688 C 23.460938 145.289063 23.84375 144.5625 24.375 143.871094 C 24.90625 143.183594 25.515625 142.667969 26.203125 142.332031 C 26.894531 141.992188 27.660156 141.824219 28.5 141.824219 C 29.199219 141.824219 29.867188 141.953125 30.511719 142.203125 C 31.148438 142.453125 31.730469 142.828125 32.25 143.332031 L 32.640625 142.324219 L 34.558594 142.324219 "/>
<path style=" stroke:none;fill-rule:nonzero;fill:rgb(1.599121%,41.598511%,70.199585%);fill-opacity:1;" d="M 45.199219 144.164063 L 46.523438 143.109375 L 47.703125 142.363281 L 48.792969 141.96875 L 49.824219 141.839844 C 50.335938 141.839844 50.773438 141.910156 51.140625 142.058594 C 51.550781 142.175781 51.953125 142.382813 52.351563 142.675781 C 52.75 142.96875 53.070313 143.320313 53.316406 143.730469 C 53.5625 144.054688 53.785156 144.453125 53.992188 144.917969 C 54.15625 145.390625 54.28125 145.910156 54.375 146.480469 C 54.464844 147.054688 54.511719 147.691406 54.511719 148.394531 L 54.511719 158.429688 C 54.511719 158.726563 54.53125 158.898438 54.574219 158.960938 L 54.722656 159.3125 L 54.996094 159.574219 L 56.761719 159.574219 L 56.761719 163.699219 L 48.136719 163.699219 L 48.136719 159.574219 L 49.101563 159.574219 L 49.433594 159.441406 L 49.644531 159.269531 L 49.765625 158.960938 L 49.824219 158.433594 L 49.824219 148.863281 L 49.734375 148.117188 L 49.554688 147.722656 L 49.28125 147.328125 L 48.921875 147.105469 L 48.472656 147.019531 L 47.78125 147.105469 C 47.523438 147.164063 47.296875 147.253906 47.105469 147.371094 C 46.914063 147.488281 46.757813 147.589844 46.625 147.675781 C 46.496094 147.765625 46.351563 147.882813 46.191406 148.027344 L 45.199219 148.949219 L 45.199219 158.433594 C 45.199219 158.726563 45.199219 158.917969 45.199219 159.003906 L 45.355469 159.269531 L 45.574219 159.441406 L 45.949219 159.574219 L 46.886719 159.574219 L 46.886719 163.699219 L 38.386719 163.699219 L 38.386719 159.574219 L 39.78125 159.574219 C 39.945313 159.574219 40.054688 159.546875 40.117188 159.488281 L 40.296875 159.3125 L 40.421875 159.003906 L 40.511719 158.519531 L 40.511719 138.238281 L 38.386719 138.238281 L 38.386719 134.03125 L 39.671875 133.898438 C 39.890625 133.871094 40.074219 133.835938 40.222656 133.789063 C 40.371094 133.746094 40.667969 133.636719 41.105469 133.457031 L 42.539063 132.925781 L 43.824219 132.261719 L 45.199219 132.261719 L 45.199219 144.164063 "/>
<path style=" stroke:none;fill-rule:nonzero;fill:rgb(1.599121%,41.598511%,70.199585%);fill-opacity:1;" d="M 66.121094 146.730469 C 65.902344 146.820313 65.65625 146.988281 65.386719 147.238281 C 65.117188 147.484375 64.894531 147.785156 64.714844 148.136719 C 64.535156 148.488281 64.386719 148.882813 64.265625 149.320313 C 64.148438 149.761719 64.039063 150.332031 63.9375 151.035156 L 63.847656 153.011719 L 63.9375 155.070313 C 64 155.6875 64.09375 156.222656 64.222656 156.675781 C 64.351563 157.128906 64.515625 157.566406 64.714844 157.992188 C 64.914063 158.414063 65.113281 158.730469 65.3125 158.9375 L 66.058594 159.460938 L 66.835938 159.636719 C 67.234375 159.636719 67.621094 159.507813 68 159.242188 C 68.378906 158.980469 68.71875 158.59375 69.019531 158.082031 C 69.316406 157.566406 69.554688 156.871094 69.734375 155.992188 C 69.816406 155.554688 69.875 155.117188 69.914063 154.679688 C 69.953125 154.238281 69.972656 153.695313 69.972656 153.054688 C 69.972656 152.320313 69.964844 151.804688 69.945313 151.496094 C 69.925781 151.1875 69.855469 150.769531 69.734375 150.242188 C 69.617188 149.484375 69.410156 148.816406 69.121094 148.246094 C 68.832031 147.675781 68.5 147.246094 68.121094 146.953125 C 67.742188 146.660156 67.34375 146.511719 66.925781 146.511719 C 66.667969 146.484375 66.398438 146.558594 66.121094 146.730469 Z M 69.191406 142.175781 C 69.910156 142.382813 70.589844 142.746094 71.230469 143.269531 C 71.808594 143.683594 72.359375 144.25 72.878906 144.980469 C 73.359375 145.597656 73.757813 146.328125 74.078125 147.171875 C 74.398438 147.933594 74.648438 148.808594 74.828125 149.804688 C 75.007813 150.796875 75.097656 151.851563 75.097656 152.960938 C 75.097656 154.625 74.914063 156.136719 74.542969 157.496094 C 74.175781 158.855469 73.625 160.046875 72.894531 161.070313 C 72.164063 162.09375 71.296875 162.859375 70.285156 163.371094 C 69.277344 163.882813 68.152344 164.136719 66.910156 164.136719 C 65.613281 164.136719 64.472656 163.890625 63.492188 163.394531 C 62.511719 162.894531 61.648438 162.136719 60.898438 161.113281 C 60.148438 160.089844 59.597656 158.898438 59.25 157.539063 C 58.898438 156.183594 58.722656 154.65625 58.722656 152.960938 C 58.722656 152.113281 58.738281 151.527344 58.769531 151.207031 C 58.796875 150.886719 58.863281 150.433594 58.964844 149.847656 C 59.144531 148.855469 59.394531 147.976563 59.714844 147.21875 C 60.035156 146.457031 60.4375 145.734375 60.929688 145.046875 C 61.417969 144.359375 61.964844 143.78125 62.5625 143.316406 C 63.164063 142.847656 63.828125 142.484375 64.558594 142.21875 C 65.285156 141.957031 66.050781 141.824219 66.851563 141.824219 C 67.652344 141.796875 68.429688 141.914063 69.191406 142.175781 "/>
<path style=" stroke:none;fill-rule:nonzero;fill:rgb(1.599121%,41.598511%,70.199585%);fill-opacity:1;" d="M 84.21875 151.585938 L 87.046875 148.011719 L 87.410156 147.609375 L 87.59375 147.34375 L 87.59375 146.808594 C 87.53125 146.6875 87.480469 146.613281 87.441406 146.585938 L 87.132813 146.449219 L 86.03125 146.449219 L 86.03125 142.324219 L 94.984375 142.324219 L 94.984375 146.453125 L 94.171875 146.582031 L 93.664063 146.714844 L 93.03125 147.195313 L 92.132813 148.117188 L 89.28125 151.105469 L 93.332031 157.996094 L 93.871094 158.917969 L 94.324219 159.355469 L 94.894531 159.574219 L 95.851563 159.574219 L 95.851563 163.699219 L 86.78125 163.699219 L 86.78125 159.574219 L 87.75 159.574219 C 87.871094 159.574219 87.949219 159.546875 87.992188 159.488281 L 88.113281 159.3125 L 88.171875 159.09375 L 88.050781 158.652344 L 87.71875 157.90625 L 86.03125 154.65625 L 84.21875 156.675781 L 84.21875 158.566406 C 84.21875 158.769531 84.21875 158.917969 84.21875 159.003906 L 84.34375 159.269531 L 84.53125 159.441406 L 84.84375 159.574219 L 85.78125 159.574219 L 85.78125 163.699219 L 77.40625 163.699219 L 77.40625 159.574219 L 78.753906 159.574219 C 78.910156 159.574219 79.042969 159.53125 79.140625 159.441406 L 79.351563 159.222656 L 79.472656 158.914063 L 79.53125 158.296875 L 79.53125 138.136719 L 77.40625 138.136719 L 77.40625 134.011719 C 78.058594 134.011719 78.53125 133.984375 78.820313 133.921875 C 79.105469 133.863281 79.496094 133.730469 79.992188 133.519531 C 80.449219 133.371094 80.894531 133.207031 81.332031 133.023438 C 81.769531 132.847656 82.253906 132.59375 82.789063 132.261719 L 84.21875 132.261719 L 84.21875 151.585938 "/>
<path style=" stroke:none;fill-rule:nonzero;fill:rgb(1.599121%,41.598511%,70.199585%);fill-opacity:1;" d="M 117.292969 133.824219 L 117.292969 137.949219 L 116.402344 137.949219 C 116.125 137.949219 115.925781 138.011719 115.808594 138.136719 L 115.480469 138.136719 L 115.183594 138.402344 L 114.976563 138.796875 L 114.855469 139.367188 L 114.855469 158.152344 C 114.855469 158.355469 114.855469 158.503906 114.855469 158.59375 L 114.976563 158.769531 L 115.128906 158.941406 L 115.429688 159.074219 L 115.941406 159.074219 C 116.304688 159.074219 116.675781 159.074219 117.058594 159.074219 C 117.359375 158.988281 117.625 158.914063 117.855469 158.855469 C 118.089844 158.796875 118.289063 158.738281 118.460938 158.679688 C 118.632813 158.621094 118.847656 158.488281 119.109375 158.28125 C 119.449219 158.078125 119.8125 157.78125 120.195313 157.402344 C 120.578125 157.019531 120.9375 156.519531 121.28125 155.902344 C 121.339844 155.785156 121.476563 155.484375 121.6875 155 C 121.898438 154.515625 122.054688 154.148438 122.15625 153.898438 C 122.257813 153.648438 122.386719 153.261719 122.546875 152.730469 C 122.609375 152.523438 122.738281 152.070313 122.941406 151.363281 L 125.625 152.683594 L 122.953125 163.699219 L 107.355469 163.699219 L 107.355469 159.574219 L 108.859375 159.574219 L 109.25 159.375 L 109.492188 159.074219 L 109.671875 158.679688 L 109.792969 158.152344 L 109.792969 139.453125 C 109.792969 139.191406 109.753906 138.984375 109.671875 138.839844 L 109.523438 138.445313 L 109.28125 138.136719 L 108.4375 138.136719 L 107.355469 137.949219 L 107.355469 133.824219 L 117.292969 133.824219 "/>
<path style=" stroke:none;fill-rule:nonzero;fill:rgb(1.599121%,41.598511%,70.199585%);fill-opacity:1;" d="M 136.648438 148.515625 C 136.585938 148.214844 136.507813 147.921875 136.40625 147.636719 C 136.308594 147.351563 136.167969 147.105469 135.988281 146.894531 L 135.539063 146.398438 L 134.96875 146.085938 L 134.398438 145.949219 L 134.007813 145.949219 L 133.589844 146.085938 L 133.230469 146.355469 L 132.6875 146.894531 L 132.300781 147.613281 L 132.027344 148.515625 L 131.847656 149.636719 L 136.796875 149.636719 C 136.796875 149.1875 136.746094 148.8125 136.648438 148.515625 Z M 141.71875 158.753906 C 141.179688 159.710938 140.597656 160.546875 139.980469 161.269531 C 139.878906 161.386719 139.652344 161.632813 139.304688 162.011719 C 138.953125 162.386719 138.601563 162.691406 138.238281 162.921875 C 137.882813 163.152344 137.5 163.355469 137.101563 163.53125 C 137.003906 163.558594 136.753906 163.660156 136.351563 163.832031 C 136.03125 163.917969 135.707031 163.992188 135.378906 164.050781 C 135.046875 164.109375 134.703125 164.136719 134.34375 164.136719 C 133.285156 164.136719 132.269531 163.875 131.300781 163.347656 C 130.332031 162.824219 129.472656 162.011719 128.722656 160.914063 C 127.972656 159.820313 127.402344 158.59375 127.015625 157.234375 C 126.625 155.875 126.429688 154.4375 126.429688 152.914063 C 126.429688 151.921875 126.519531 150.949219 126.699219 150 C 126.878906 149.050781 127.136719 148.152344 127.464844 147.304688 C 127.792969 146.457031 128.191406 145.695313 128.664063 145.023438 C 129.132813 144.355469 129.667969 143.777344 130.269531 143.292969 C 130.867188 142.8125 131.515625 142.4375 132.214844 142.175781 C 132.574219 142.058594 132.921875 141.972656 133.25 141.914063 C 133.578125 141.855469 133.964844 141.824219 134.402344 141.824219 C 134.625 141.824219 134.8125 141.824219 134.972656 141.824219 C 135.132813 141.824219 135.414063 141.882813 135.8125 142 C 136.3125 142.089844 136.730469 142.25 137.070313 142.484375 C 137.269531 142.574219 137.460938 142.675781 137.640625 142.792969 C 137.820313 142.910156 138 143.058594 138.183594 143.230469 C 138.578125 143.527344 138.910156 143.863281 139.171875 144.246094 C 139.488281 144.625 139.765625 145.042969 139.996094 145.5 C 140.226563 145.953125 140.4375 146.46875 140.640625 147.039063 C 140.839844 147.609375 140.988281 148.175781 141.089844 148.730469 L 141.390625 150.445313 L 141.449219 151.589844 L 141.480469 153.261719 L 131.617188 153.261719 C 131.617188 154.214844 131.714844 155.03125 131.902344 155.722656 C 132.09375 156.414063 132.355469 157.046875 132.695313 157.621094 C 133.015625 158.082031 133.414063 158.5 133.894531 158.875 C 134.316406 159.132813 134.785156 159.261719 135.304688 159.261719 C 135.503906 159.261719 135.703125 159.261719 135.902344 159.261719 C 136.101563 159.179688 136.242188 159.121094 136.324219 159.09375 C 136.664063 158.980469 137.03125 158.765625 137.433594 158.453125 L 138.003906 157.980469 L 138.601563 157.382813 L 139.140625 156.699219 L 139.738281 155.886719 L 141.71875 158.753906 "/>
<g clip-path="url(#clip1)" clip-rule="nonzero">
<path style=" stroke:none;fill-rule:nonzero;fill:rgb(1.599121%,41.598511%,70.199585%);fill-opacity:1;" d="M 152.078125 142.324219 L 152.078125 146.449219 L 151.496094 146.449219 C 151.203125 146.449219 150.988281 146.492188 150.851563 146.574219 C 150.675781 146.574219 150.558594 146.574219 150.5 146.574219 L 150.324219 146.796875 L 150.269531 147.0625 L 150.328125 147.550781 L 150.59375 148.390625 L 152.753906 156.1875 L 155.097656 148.421875 L 155.269531 147.71875 L 155.339844 147.234375 L 155.277344 146.882813 C 155.214844 146.765625 155.164063 146.707031 155.125 146.707031 L 154.761719 146.574219 L 154.089844 146.574219 L 153.269531 146.449219 L 153.269531 142.324219 L 161.1875 142.324219 L 161.1875 146.441406 L 160.355469 146.574219 L 159.96875 146.574219 L 159.730469 146.714844 L 159.582031 146.902344 L 159.34375 147.414063 L 159.046875 148.253906 L 152.398438 168.046875 C 152.097656 168.996094 151.738281 169.871094 151.316406 170.671875 C 150.976563 171.355469 150.585938 171.949219 150.148438 172.453125 C 149.726563 172.867188 149.269531 173.179688 148.769531 173.390625 C 148.527344 173.476563 148.277344 173.550781 148.019531 173.609375 C 147.757813 173.671875 147.476563 173.699219 147.179688 173.699219 C 146.976563 173.699219 146.761719 173.691406 146.53125 173.679688 C 146.300781 173.664063 146.007813 173.554688 145.648438 173.347656 C 145.226563 173.167969 144.847656 172.867188 144.507813 172.4375 C 144.167969 172.011719 143.902344 171.554688 143.714844 171.066406 C 143.523438 170.578125 143.429688 170.039063 143.429688 169.449219 C 143.429688 168.949219 143.480469 168.535156 143.59375 168.210938 C 143.703125 167.886719 143.855469 167.546875 144.058594 167.191406 L 144.746094 166.484375 C 145.007813 166.335938 145.269531 166.261719 145.527344 166.261719 C 145.769531 166.261719 145.957031 166.292969 146.097656 166.351563 L 146.667969 166.695313 L 146.847656 166.871094 L 147.058594 167.042969 L 147.238281 167.308594 L 147.417969 167.609375 L 147.628906 167.957031 L 147.808594 168.175781 L 147.929688 168.261719 L 148.078125 168.261719 L 148.378906 168.175781 L 148.679688 167.867188 L 149.128906 166.941406 L 149.667969 165.445313 L 150.238281 163.6875 L 145.257813 148.378906 L 144.898438 147.5 L 144.6875 146.972656 L 144.445313 146.75 L 144.238281 146.574219 L 142.976563 146.574219 L 142.976563 142.324219 L 152.078125 142.324219 "/>
</g>
<path style=" stroke:none;fill-rule:nonzero;fill:rgb(1.599121%,41.598511%,70.199585%);fill-opacity:1;" d="M 169.035156 157.335938 L 169.035156 158.433594 C 169.035156 158.667969 169.054688 158.8125 169.097656 158.871094 L 169.25 159.269531 L 169.550781 159.488281 L 169.949219 159.574219 L 171.285156 159.574219 L 171.285156 163.699219 L 162.160156 163.699219 L 162.160156 159.574219 L 163.4375 159.574219 C 163.640625 159.574219 163.78125 159.546875 163.863281 159.488281 L 164.105469 159.269531 L 164.257813 158.960938 L 164.347656 158.390625 L 164.347656 138.199219 L 162.160156 138.199219 L 162.160156 134.074219 C 162.621094 134.074219 163.042969 134.03125 163.425781 133.9375 C 163.808594 133.851563 164.28125 133.714844 164.84375 133.53125 C 165.75 133.261719 166.671875 132.835938 167.617188 132.261719 L 169.035156 132.261719 L 169.035156 157.335938 "/>
<path style=" stroke:none;fill-rule:nonzero;fill:rgb(1.599121%,41.598511%,70.199585%);fill-opacity:1;" d="M 180.585938 154.570313 L 179.84375 154.746094 L 179.25 155.015625 L 178.804688 155.191406 C 178.566406 155.28125 178.34375 155.429688 178.136719 155.636719 C 177.929688 155.84375 177.773438 156.046875 177.675781 156.253906 L 177.4375 156.875 L 177.351563 157.539063 C 177.351563 157.835938 177.390625 158.105469 177.46875 158.355469 C 177.546875 158.609375 177.648438 158.816406 177.777344 158.976563 C 177.90625 159.140625 178.070313 159.292969 178.269531 159.441406 C 178.445313 159.53125 178.675781 159.574219 178.953125 159.574219 L 179.457031 159.484375 L 180.050781 159.222656 L 180.730469 158.734375 L 181.476563 158.15625 L 181.476563 154.304688 Z M 181.476563 149.046875 C 181.476563 148.519531 181.476563 148.136719 181.476563 147.898438 L 181.386719 147.144531 L 181.144531 146.613281 L 180.78125 146.214844 L 180.300781 145.949219 L 179.730469 145.949219 C 179.527344 145.949219 179.367188 145.949219 179.246094 145.949219 C 179.125 145.949219 178.996094 146.011719 178.855469 146.132813 L 178.492188 146.402344 L 178.222656 146.71875 L 177.953125 147.308594 L 177.679688 148.167969 C 177.558594 148.621094 177.410156 149.03125 177.230469 149.390625 L 176.71875 150.160156 L 176.113281 150.613281 L 175.421875 150.75 C 175.101563 150.75 174.820313 150.691406 174.578125 150.574219 C 174.339844 150.457031 174.117188 150.253906 173.917969 149.960938 C 173.714844 149.664063 173.570313 149.363281 173.480469 149.058594 C 173.390625 148.75 173.324219 148.316406 173.285156 147.761719 C 173.285156 147.261719 173.328125 146.816406 173.421875 146.417969 C 173.511719 146.023438 173.675781 145.605469 173.914063 145.167969 C 174.152344 144.726563 174.480469 144.292969 174.898438 143.871094 C 175.320313 143.445313 175.78125 143.09375 176.292969 142.8125 C 176.800781 142.535156 177.367188 142.300781 177.996094 142.109375 C 178.628906 141.921875 179.289063 141.824219 179.988281 141.824219 C 180.628906 141.824219 181.238281 141.90625 181.828125 142.066406 C 182.417969 142.230469 182.953125 142.46875 183.429688 142.792969 C 183.910156 143.113281 184.308594 143.480469 184.628906 143.890625 C 184.96875 144.242188 185.230469 144.636719 185.421875 145.074219 C 185.609375 145.515625 185.738281 146.019531 185.808594 146.589844 C 185.878906 147.160156 185.925781 147.578125 185.945313 147.84375 C 185.964844 148.105469 185.976563 148.558594 185.976563 149.203125 L 185.976563 158.03125 L 186.066406 158.691406 L 186.222656 159.039063 L 186.496094 159.394531 L 186.867188 159.613281 L 187.265625 159.699219 L 187.757813 159.605469 L 188.40625 159.324219 L 188.40625 163.480469 L 187.160156 163.878906 L 185.976563 164.011719 C 185.535156 164.011719 185.160156 163.96875 184.851563 163.882813 C 184.539063 163.792969 184.324219 163.730469 184.203125 163.6875 C 184.085938 163.644531 183.914063 163.578125 183.695313 163.488281 C 183.414063 163.285156 183.125 163.011719 182.824219 162.664063 L 182.105469 161.574219 L 180.699219 162.75 L 179.441406 163.535156 L 178.277344 163.882813 L 177.140625 164.011719 C 176.460938 164.011719 175.847656 163.878906 175.300781 163.613281 C 174.753906 163.347656 174.238281 162.9375 173.761719 162.375 C 173.359375 161.8125 173.046875 161.164063 172.816406 160.425781 C 172.589844 159.6875 172.476563 158.90625 172.476563 158.082031 C 172.476563 157.578125 172.507813 157.101563 172.578125 156.640625 C 172.648438 156.183594 172.757813 155.777344 172.90625 155.421875 C 173.058594 155.070313 173.246094 154.703125 173.476563 154.316406 C 173.703125 153.933594 173.96875 153.59375 174.269531 153.296875 C 174.488281 153.03125 174.820313 152.761719 175.269531 152.480469 C 175.71875 152.199219 176.292969 151.941406 176.988281 151.707031 L 179.023438 151.128906 L 181.476563 150.6875 L 181.476563 149.046875 "/>
<path style=" stroke:none;fill-rule:nonzero;fill:rgb(1.599121%,41.598511%,70.199585%);fill-opacity:1;" d="M 196.582031 144.648438 L 198.105469 143.324219 L 199.390625 142.441406 L 199.777344 142.265625 L 200.195313 142.089844 L 200.972656 141.914063 L 201.808594 141.824219 C 202.304688 141.824219 202.742188 141.898438 203.121094 142.046875 C 203.539063 142.164063 203.925781 142.382813 204.285156 142.707031 C 204.644531 142.972656 204.957031 143.300781 205.226563 143.695313 C 205.492188 144.09375 205.707031 144.511719 205.867188 144.953125 C 206.027344 145.394531 206.148438 145.9375 206.238281 146.582031 C 206.328125 147.230469 206.375 147.933594 206.375 148.695313 L 206.375 158.5625 L 206.46875 159.089844 L 206.589844 159.398438 L 206.804688 159.574219 L 208.625 159.574219 L 208.625 163.699219 L 200 163.699219 L 200 159.574219 L 201.105469 159.574219 L 201.410156 159.398438 L 201.59375 159.09375 L 201.6875 158.519531 L 201.6875 149.695313 C 201.6875 149.140625 201.667969 148.71875 201.628906 148.421875 C 201.589844 148.132813 201.539063 147.910156 201.480469 147.765625 C 201.359375 147.53125 201.222656 147.363281 201.066406 147.261719 C 200.90625 147.15625 200.679688 147.078125 200.382813 147.019531 L 199.730469 147.105469 L 199.050781 147.414063 C 198.792969 147.503906 198.507813 147.707031 198.191406 148.027344 L 197.125 149.082031 L 197.125 157.554688 C 197.125 158.140625 197.144531 158.558594 197.183594 158.808594 C 197.222656 159.054688 197.273438 159.222656 197.335938 159.3125 L 197.695313 159.574219 L 198.8125 159.574219 L 198.8125 163.699219 L 190.25 163.699219 L 190.25 159.574219 L 191.511719 159.574219 C 191.757813 159.574219 191.914063 159.546875 191.976563 159.488281 L 192.191406 159.3125 L 192.34375 159.046875 L 192.4375 158.558594 L 192.4375 147.699219 L 190.25 147.699219 L 190.25 143.574219 C 190.652344 143.574219 191.058594 143.523438 191.472656 143.421875 C 191.882813 143.320313 192.332031 143.167969 192.8125 142.964844 C 193.699219 142.671875 194.492188 142.292969 195.195313 141.824219 L 196.582031 141.824219 L 196.582031 144.648438 "/>
<g clip-path="url(#clip2)" clip-rule="nonzero">
<path style=" stroke:none;fill-rule:nonzero;fill:rgb(1.599121%,41.598511%,70.199585%);fill-opacity:1;" d="M 220.960938 150.417969 C 220.960938 149.921875 220.960938 149.570313 220.960938 149.367188 L 220.871094 148.578125 L 220.597656 147.832031 C 220.457031 147.566406 220.285156 147.347656 220.082031 147.171875 L 219.414063 146.730469 L 218.6875 146.558594 C 218.421875 146.558594 218.175781 146.609375 217.941406 146.710938 C 217.710938 146.8125 217.476563 146.980469 217.242188 147.214844 C 217.011719 147.449219 216.800781 147.75 216.605469 148.113281 C 216.414063 148.480469 216.257813 148.882813 216.136719 149.324219 C 216.015625 149.761719 215.902344 150.332031 215.804688 151.035156 L 215.710938 152.96875 C 215.710938 153.960938 215.785156 154.859375 215.9375 155.664063 C 216.085938 156.472656 216.3125 157.164063 216.613281 157.75 C 216.832031 158.191406 217.09375 158.558594 217.390625 158.847656 C 217.710938 159.082031 218.0625 159.199219 218.441406 159.199219 L 218.921875 159.15625 C 219.121094 159.097656 219.269531 159.023438 219.371094 158.9375 L 220.003906 158.496094 L 220.960938 157.664063 Z M 225.648438 157.203125 L 225.648438 158.433594 C 225.648438 158.726563 225.667969 158.917969 225.710938 159.003906 L 225.828125 159.3125 L 226.011719 159.488281 L 226.398438 159.574219 L 227.808594 159.574219 L 227.808594 163.699219 L 221.472656 164.007813 L 221.472656 161.824219 L 220.179688 163.027344 L 219.066406 163.691406 L 218.527344 163.914063 L 218.015625 164.050781 L 217.472656 164.136719 L 216.964844 164.136719 C 216.601563 164.136719 216.332031 164.125 216.152344 164.09375 C 215.972656 164.0625 215.675781 163.96875 215.265625 163.808594 C 214.855469 163.648438 214.386719 163.351563 213.867188 162.910156 C 213.40625 162.445313 212.972656 161.890625 212.574219 161.246094 C 212.210938 160.574219 211.886719 159.832031 211.597656 159.011719 C 211.304688 158.195313 211.058594 157.246094 210.859375 156.164063 C 210.800781 155.640625 210.75 155.144531 210.710938 154.675781 C 210.667969 154.207031 210.648438 153.683594 210.648438 153.097656 C 210.648438 151.960938 210.726563 150.898438 210.875 149.921875 C 211.023438 148.941406 211.257813 148.015625 211.566406 147.140625 C 211.878906 146.265625 212.226563 145.503906 212.617188 144.859375 C 213.007813 144.21875 213.453125 143.664063 213.957031 143.195313 C 214.21875 142.964844 214.445313 142.78125 214.648438 142.648438 C 214.847656 142.519531 215.113281 142.378906 215.445313 142.234375 C 215.773438 142.085938 216.070313 141.984375 216.332031 141.925781 C 216.59375 141.867188 216.902344 141.839844 217.265625 141.839844 C 217.664063 141.839844 217.964844 141.867188 218.164063 141.929688 L 219.039063 142.191406 C 219.199219 142.222656 219.355469 142.28125 219.503906 142.371094 C 219.652344 142.460938 219.808594 142.5625 219.96875 142.679688 L 220.960938 143.386719 L 220.960938 138.261719 L 218.777344 138.261719 L 218.777344 134.039063 L 220.4375 133.773438 C 220.816406 133.714844 221.066406 133.667969 221.1875 133.640625 C 221.3125 133.609375 221.5 133.535156 221.761719 133.417969 L 222.9375 132.929688 L 224.234375 132.261719 L 225.648438 132.261719 L 225.648438 157.203125 "/>
</g>
</g>
</svg>
