<svg version="1.2" xmlns="http://www.w3.org/2000/svg" viewBox="0 0 1584 585" width="1584" height="585">
	<title>infosys-svg</title>
	<style>
		.s0 { fill: #007cc3 } 
	</style>
	<path id="logo" fill-rule="evenodd" class="s0" d="m1486.4 48.7c0-27.1 22.6-48.4 48.4-48.4 27.1 0 48.4 22.6 48.4 48.4 0 27.1-22.6 48.4-48.4 48.4-25.8 0-47.1-21.3-48.4-48.4zm90.9 0.3c0-22.8-18.4-41.2-41.2-41.2-22.8 0-41.2 18.4-41.2 41.2 0 22.7 18.4 41.1 41.2 41.1 22.8 0 41.2-18.4 41.2-41.1zm-60.1 24.4h1.4v-52.9h16.4c9.4 0 20 2.4 20 16.5 0 9.6-4.8 12-8.3 13l9.3 22.3h-10.6l-8.2-19.9h-10.7v21.3h-9.3zm9.3-27.9h10.7c4.8 0 8.2-2.4 8.2-7.2 0-4.8-2.4-7.2-8.2-7.2h-10.7zm-1525.9-31.9h56.7v469.6h-56.7zm848.9 401.4c35.3 31.9 65.9 48.3 107.1 48.3 41.2 0 77.6-19.9 77.6-58.7 0-32.9-28.2-51.8-80-73.1-43.6-18.9-75.2-31.9-93.1-58.7 2.4 11.7 3.5 23.6 3.5 36.4 0 104.7-76.6 189.5-170.7 189.5-94.1 0-170.6-84.8-170.6-189.5 0-63.5 28.1-118.8 70.7-154.2h-115.4v329.6h-50.5c0-1.1 0-329.8 0-329.8h-44.7v-34h46c5.9-69.4 48.4-108.2 108.2-108.2 38.8 0 60.1 3.4 71.8 9.3 0 3.4 0 52.9 0 52.9h-2.4c-18.9-17.6-36.4-29.5-78.9-29.5-34.1 0-56.7 27.1-48.4 75.2h191.9c8.2-1.1 16.5-2.4 24.7-2.4 68.4 0 127.1 44.6 154.2 109.5 0-3.5 0-7.2 0-11.7 0-67 65.9-96.5 132.9-96.5q3.6 0 7.2 0c23.7 0 57.7 7.2 79 13.1l18.8 45.9 21.3 52.9 56.6 141.1 7.2 22.4 7.2-22.4 73.1-180.1c13-49.5 67-70.7 124.7-70.7 29.5 0 50.5 3.4 76.5 13v54.5c-31.9-23.7-54.2-36.5-90.6-36.5-31.9 0-69.4 14.1-69.4 61.2-1.1 35.3 19.9 41.2 82.4 71.7 50.5 22.4 97.8 46 97.8 102.4 0 94-93 110.5-137.7 110.5-40.1 0-77.6-9.3-97.8-27.1v-62.4l3.5 2.4c36.4 34 69.3 51.8 110.5 51.8 41.3 0 77.7-20 77.7-58.8 0-32.9-28.2-51.8-80-73-49.5-21.3-81.4-35.4-94.2-70.7-19.9 48.3-112.9 275.3-135.3 323.7h-49.4l11.7-22.4 10.6-19.9v-1c13-24.8 30.6-63.6 47.1-101.3l-96.5-233.1c-1.1-1.1-2.4-4.8-5.9-11.7-7.2-16.5-14.1-32.9-35.3-40.1-10.7-3.5-23.7-5.9-36.4-5.9-32 0-71.8 14.1-71.8 61.2-1.1 35.3 22.3 41.2 84.8 71.7 50.5 22.3 97.8 46 97.8 102.3 0 94.1-93 110.6-137.7 110.6-35.4 0-69.4-8.2-90.6-21.3zm195.6-205.9c1.1 3.4-2.4-4.8-2.4-4.8zm43 346.5c-1.7 3-3 5.5-4.2 7.8zm6.5-12.2l-6.5 12.2c1.8-3.4 4-7.3 6.5-12.2zm-6.5-362.3q-0.3-0.7-0.7-1.6zm1.7 4.1l19 47.3-18.9-47q-0.1-0.2-0.1-0.3zm-1.7-4.1c0.5 1.4 0.8 2.4 1.7 4.1zm-511.6 131.6c1.1 85.8 54.2 154.2 118.8 153.1 64.9-1.1 115.4-71.8 114.3-156.6-1-85.8-54.2-154.1-118.8-153-64.9 1-115.6 70.4-114.3 156.5zm-413.4-188.4l1.1 41.2v2.4c1.1-1.1 1.1-3.5 2.4-4.8 21.2-22.4 47-44.7 109.5-44.7 60.1 0 97.8 50.5 100 82.4v282.5h-50.5v-258.8c0-40.2-35.4-68.3-77.7-68.3-35.3 0-81.3 31.9-82.4 64.8v262.3h-51.8v-359z"/>
</svg>