<?xml version="1.0" encoding="utf-8"?>
<!-- Generator: Adobe Illustrator 19.2.1, SVG Export Plug-In . SVG Version: 6.00 Build 0)  -->
<svg version="1.1" id="layer" xmlns="http://www.w3.org/2000/svg" xmlns:xlink="http://www.w3.org/1999/xlink" x="0px" y="0px"
	 viewBox="0 0 652 652" style="enable-background:new 0 0 652 652;" xml:space="preserve">
<style type="text/css">
	.st0{fill:#D71920;}
	.st1{fill:#16469D;}
</style>
<path class="st0" d="M362.2,214L313,247.5c106.5,3.1,178.9-30.9,178.9-30.9c-77.2,37.6-158.7,40.9-192.9,40.4l-58.6,40
	c0,0,183.3-4.6,300-117.2C540.3,179.9,468.2,233.3,362.2,214"/>
<path class="st1" d="M582.7,296.3L582.7,296.3h-4.8c0,0,2.2,3.2-0.9,7.7l-40.6,55.3l4.9-52.6c1-6.8,6.3-10.4,6.3-10.4h-17.3v0h-43.8
	l-46.3,63l4.9-52.3c0,0,0.1-0.1,0.1-0.1c0.9-6.8,6.3-10.5,6.3-10.5h-5.4v0l-55.7,0v0c-2.9-0.1-142.5-6.6-163.4,30.6
	c8.6-17.3,14.4-29.9,14.8-30.4H140.5c1.1,0.3,6.6,3.4,4.8,8.6v0c-5.3,18-18.1,59.7-32.5,90.6c-18.8,40.5-61.2,55.3-90.2,65.6
	c-2.7,1-2.3,2.9,0.5,2.9c71.5,0.4,130.3-5.3,174.7-82.3c10.3-17.8,20.4-37.4,28.3-53.3c-0.5,1.2-0.9,2.4-1.2,3.7
	c-9.1,41.5,68.5,44.2,67.3,54.1c-1,8.7-47.3,6.1-77.8-4c-0.2-0.1-0.3-0.1-0.4-0.2c-5.9-1.9-8.3-5.4-8.3-5.4l0.3,2.4l0,0
	c0,0,0,0.2,0.1,0.4l1.2,11.1c1.2,11.7,2.8,28.1,2.8,28.1s161.6,20.4,164.6-32.1c2.2-39.8-75.6-44.6-74.7-53.3
	c0.8-8.2,38.7-9.2,61.7-5.8c0.1,0,0.1,0,0.2,0c10.3,1.6,11.7,7.2,11.7,7.2l1.7-3.9h0c0-0.2,13.9-31.9,15.1-34.7L380,408v0
	c-0.9,6.8-6.3,10.5-6.3,10.5h10.9l50.1,0l46.4-63l-4.9,52.6c-0.9,6.8-6.3,10.5-6.3,10.5h5.3v0l55.7,0l89.9-122.2L582.7,296.3z"/>
</svg>
