<svg xmlns="http://www.w3.org/2000/svg" height="800" width="1200" viewBox="-92.0559 -42.401 797.8178 254.406"><defs><clipPath id="a"><path d="M0 288h576V0H0z"/></clipPath></defs><path d="M74.467.005L0 0v17.449l27.142.006v57.254h20.143l-.006-57.26 27.188.003z" fill="#656262" fill-rule="evenodd"/><g clip-path="url(#a)" transform="matrix(1.25 0 0 -1.25 -53.026 268.755)" fill-rule="evenodd"><path d="M264.028 113.707c0 5.228-4.257 9.43-9.486 9.43h-20.964c-1.832 0-2.748-.917-3.719-2.372-.054-.052-6.25-9-6.25-9h20.208a4.455 4.455 0 004.258-4.472V79.321h15.953v34.386m-56.372 25.382h15.952V79.321h-15.952zm138.612-15.952h-45.323V79.322h16.059v32.443h18.215c2.48 0 4.53-1.993 4.53-4.472V79.322h16.006v34.385c0 5.228-4.26 9.43-9.487 9.43m-227.212 15.952H42.42V79.32h15.898v45.81h17.03c1.617 0 2.91-1.348 2.91-2.965V79.32h15.953v42.845a2.955 2.955 0 002.964 2.965h12.557c2.425 0 4.419-1.94 4.419-4.366V79.32h15.899v48.775a10.971 10.971 0 01-10.995 10.993m155.483-30.178V79.32h15.953v43.329s-7.385-4.58-12.612-7.867c-1.995-1.292-3.341-3.449-3.341-5.874m0 30.234h15.953v-11.046l-15.953-10.562zm166.529-16.005c-3.99 0-6.576-3.072-6.576-6.36V79.322h16.06v27.918c0 2.478 1.778 4.58 4.312 4.58h11.91c1.723.106 3.181 1.13 4.096 2.479.053.054 6.25 8.838 6.25 8.838zm-33.09 15.952V90.26h-23.121c-1.616 0-2.75 1.403-2.75 2.588v14.444h.056a4.46 4.46 0 004.473 4.472h11.693c1.725 0 3.504 1.024 4.258 2.209l5.39 9.163h-32.441c-5.177 0-9.433-4.202-9.433-9.43V87.19c0-5.066 4.04-7.87 7.759-7.87h50.122v59.769zm115.976-15.952H487.09c-1.832 0-3.5-.861-4.525-2.265l-6.198-9.107h37.132c2.317-.107 4.203-2.102 4.203-4.472l-.055-17.407H489.84v5.012c0 .968.807 1.779 1.778 1.779h19.457v6.465c0 1.563-.97 2.427-2.319 2.427h-26.948c-3.34 0-5.98-2.64-5.98-5.93V83.742c0-.107 0-.163.054-.271.377-2.368 2.426-4.148 4.904-4.148h52.6v34.385a9.406 9.406 0 01-9.432 9.43m-335.646-.001h-36.863c-1.778 0-3.502-.861-4.472-2.265l-6.253-9.107h37.133c2.318-.107 4.204-2.102 4.204-4.472V89.886h-27.863v5.012c0 .968.808 1.779 1.778 1.779h19.455v6.465c0 1.563-.969 2.427-2.317 2.427h-26.947c-3.34 0-5.98-2.64-5.98-5.93V83.742c0-.107 0-.163.053-.271a4.937 4.937 0 014.904-4.148h52.6v34.385a9.406 9.406 0 01-9.432 9.43" fill="#e51635"/><path d="M290.49 188.874c0 5.227-4.259 9.43-9.486 9.43H259.49c-1.834 0-2.75-.915-3.72-2.37-.053-.053-6.252-9-6.252-9h20.76a4.457 4.457 0 004.258-4.473v-27.972h15.954v34.276zm-56.924 25.383h15.952V154.49h-15.952zm-44.273-43.923h.054a4.473 4.473 0 014.496-4.473l29.806.002V154.49h-40.964c-5.2 0-9.478 4.204-9.478 9.431v32.427-6.727c0 5.227 4.279 9.432 9.478 9.432h40.868l-2.515-6.251c-.532-1.318-.808-2.438-2.018-3.289-.864-.609-1.595-1.033-2.707-1.033h-22.47a4.474 4.474 0 01-4.495-4.474h-.054v-13.672m-71.58-15.295h34.13c1.777 0 3.501.863 4.472 2.263l6.252 9.109H128.17c-2.316.107-4.204 2.102-4.204 4.473v17.407h25.13v-5.012c0-.97-.809-1.778-1.78-1.778h-16.719v-6.468c0-1.562.97-2.424 2.317-2.424h24.211c3.341 0 5.982 2.639 5.982 5.927v15.9c0 .107 0 .16-.054.268a4.935 4.935 0 01-4.903 4.15h-49.866V164.47a9.408 9.408 0 019.43-9.432" fill="#656262"/></g></svg>